<?xml version="1.0" encoding="utf-8"?>
<!-- Generator: Adobe Illustrator 19.1.1, SVG Export Plug-In . SVG Version: 6.00 Build 0)  -->
<svg version="1.1" id="Layer_1" xmlns="http://www.w3.org/2000/svg" xmlns:xlink="http://www.w3.org/1999/xlink" x="0px" y="0px"
	 width="159.6px" height="43.4px" viewBox="-326.5 395.9 159.6 43.4" style="enable-background:new -326.5 395.9 159.6 43.4;"
	 xml:space="preserve">
<style type="text/css">
	.st0{fill:#ED2020;}
	.st1{fill:#8E1717;}
	.st2{fill:#BC2020;}
	.st3{fill:#630404;}
	.st4{fill:#333333;}
</style>
<g>
	<g>
		<polygon class="st0" points="-301.6,395.9 -306.7,398.8 -306.7,405.5 -310.9,407.7 -310.9,401 -316.6,404.5 -316.6,410.9 
			-316.9,411.2 -316.9,411.2 -321.1,413.1 -321.1,407.1 -326.5,410.2 -326.5,439.3 -301.6,439.3 		"/>
		<polygon class="st1" points="-306.7,405.8 -310.9,401 -310.9,407.7 		"/>
		<polygon class="st1" points="-316.6,411.2 -316.6,411.2 -321.1,407.1 -321.1,413.1 		"/>
		<polygon class="st1" points="-276.4,439.3 -276.4,410.2 -281.8,407.1 -281.8,413.1 -286,411.2 -286,411.2 -286,410.9 -286,404.5 
			-292.4,401 -292.4,407.7 -296.2,405.5 -296.2,398.8 -301.6,395.9 -301.6,439.3 		"/>
		<polygon class="st0" points="-296.2,405.8 -292.4,407.7 -292.4,401 		"/>
		<polygon class="st0" points="-281.8,413.1 -281.8,407.1 -286,411.2 -286,411.2 		"/>
		<polygon class="st2" points="-301.6,427.8 -308.3,429.7 -308.3,439.3 -301.6,439.3 		"/>
		<polygon class="st3" points="-301.6,427.8 -294.6,429.7 -294.6,439.3 -301.6,439.3 		"/>
		<polygon class="st1" points="-301.6,409 -326.5,420.8 -326.5,419.5 -301.6,407.4 		"/>
		<polygon class="st0" points="-301.6,409 -276.4,420.8 -276.4,419.5 -301.6,407.4 		"/>
	</g>
	<g>
		<g>
			<path class="st4" d="M-266.5,415.4v13.7h-2.6v-18.8h3.8l3.2,11.2v-11.2h2.6v18.8h-3.2L-266.5,415.4z"/>
			<path class="st4" d="M-254.4,418.2h4.2v2.6h-4.2v5.4h5.1v2.6h-8v-18.5h8v2.6h-5.1V418.2z"/>
			<path class="st4" d="M-240.3,418.9l-1,10.2h-4.2l-2.2-18.8h2.9l1.6,15l1.3-15h2.9l1.6,15l1.6-15h2.6l-2.2,18.8h-3.8L-240.3,418.9
				z"/>
			<path class="st4" d="M-218.3,422.1v2.6c0,2.9-1.6,4.8-4.5,4.8c-2.9,0-4.5-1.6-4.5-4.8v-9.9c0-2.9,1.6-4.8,4.5-4.8
				c2.9,0,4.5,1.6,4.5,4.8v1.9h-2.9v-1.9c0-1.3-0.6-1.9-1.6-1.9c-1,0-1.6,0.6-1.6,1.9v10.2c0,1.3,0.6,1.9,1.6,1.9
				c1,0,1.6-0.6,1.6-1.9v-2.6C-221.2,422.1-218.3,422.1-218.3,422.1z"/>
			<path class="st4" d="M-206.5,429.1h-2.9l-0.6-3.5h-3.5l-0.6,3.5h-2.6l2.9-18.8h4.5L-206.5,429.1z M-213.2,423h2.9l-1.3-9.6
				L-213.2,423z"/>
			<path class="st4" d="M-200.7,409.9c2.9,0,4.5,1.6,4.5,4.8v0.6h-2.9v-0.6c0-1.3-0.6-1.9-1.6-1.9s-1.6,0.6-1.6,1.9
				c0,3.8,5.7,4.5,5.7,9.9c0,2.9-1.6,4.8-4.5,4.8c-2.9,0-4.5-1.6-4.5-4.8v-1.3h2.9v1.3c0,1.3,0.6,1.9,1.6,1.9s1.6-0.6,1.6-1.9
				c0-3.8-5.7-4.5-5.7-9.9C-205.2,411.5-203.6,409.9-200.7,409.9z"/>
			<path class="st4" d="M-195.3,410.2h9.3v2.6h-3.2v16.3h-2.9v-16.3h-3.2V410.2L-195.3,410.2z"/>
			<path class="st4" d="M-184.5,410.2h2.9v16.3h4.8v2.6h-8v-18.8H-184.5z"/>
			<path class="st4" d="M-172,418.2h4.2v2.6h-4.2v5.4h5.1v2.6h-8v-18.5h8v2.6h-5.1V418.2z"/>
		</g>
		<g>
			<g>
				<path class="st4" d="M-268.7,433.9h0.6v4.5h2.2v0.6h-2.9V433.9L-268.7,433.9z"/>
				<path class="st4" d="M-265.5,439h-3.5v-5.7h1.3v4.5h2.2L-265.5,439L-265.5,439z M-268.4,438.3h2.6l0,0H-268.4v-4.5l0,0V438.3z"
					/>
			</g>
			<g>
				<path class="st4" d="M-249.3,433.9h0.6v5.1h-0.6V433.9z"/>
				<path class="st4" d="M-248.3,439h-1.3v-5.7h1.3V439z M-248.9,438.3L-248.9,438.3v-4.5l0,0V438.3z"/>
			</g>
			<g>
				<path class="st4" d="M-228.2,433.9h0.6l-2.2,5.1l0,0l-2.2-5.1h0.6l1.6,3.5L-228.2,433.9z"/>
				<path class="st4" d="M-229.5,439h-0.6l-2.6-5.7h1.3l1.3,3.2l1.3-3.2h1.3L-229.5,439z M-231.7,434.2l1.9,4.2l1.9-4.2l0,0
					l-1.6,4.2L-231.7,434.2L-231.7,434.2z"/>
			</g>
			<g>
				<path class="st4" d="M-211.3,433.9h0.6v5.1h-0.6V433.9z"/>
				<path class="st4" d="M-210,439h-1.3v-5.7h1.3V439z M-211,438.3L-211,438.3v-4.5l0,0V438.3z"/>
			</g>
			<g>
				<path class="st4" d="M-189.2,433.9h0.6v5.1h-0.6l-3.5-3.8v3.8h-0.6v-5.1h0.6l3.5,3.8V433.9z"/>
				<path class="st4" d="M-188.3,439h-1l-2.9-3.5v3.5h-1.3v-5.7h1l2.9,3.5v-3.5h1.3V439L-188.3,439z M-188.9,438.3L-188.9,438.3
					v-4.5l0,0V438.3z M-189.2,438.3L-189.2,438.3l-3.8-4.5l0,0v4.5l0,0v-4.5L-189.2,438.3z"/>
			</g>
			<g>
				<path class="st4" d="M-168.8,436.4h1.6v2.2c-0.6,0.3-1.3,0.3-1.9,0.3c-1,0-1.6-0.3-1.9-0.6c-0.6-0.6-0.6-1-0.6-1.9
					c0-0.6,0.3-1.3,0.6-1.9c0.6-0.6,1.3-0.6,1.9-0.6c0.3,0,0.6,0,1,0c0.3,0,0.6,0.3,1,0.3v0.6c-0.6-0.3-1.3-0.6-1.9-0.6
					c-0.6,0-1,0.3-1.3,0.6c-0.3,0.3-0.6,1-0.6,1.3c0,0.6,0.3,1,0.6,1.3c0.3,0.3,1,0.6,1.6,0.6c0.3,0,0.6,0,1-0.3l0,0v-1h-1V436.4
					L-168.8,436.4z"/>
				<path class="st4" d="M-169.1,439c-1,0-1.6-0.3-2.2-1c-0.6-0.6-1-1.3-1-1.9c0-1,0.3-1.6,1-2.2c0.6-0.6,1.3-1,2.2-1
					c0.3,0,0.6,0,1,0c0.3,0,0.6,0.3,1,0.3h0.3v1.6l-0.3-0.3c-1-0.6-2.2-0.6-2.9,0c-0.3,0.3-0.6,0.6-0.6,1.3c0,0.6,0,1,0.3,1.3
					c0.3,0.3,0.6,0.3,1.3,0.3c0.3,0,0.6,0,1,0v-0.6h-1v-1.3h2.2v2.6h-0.3C-167.9,439-168.5,439-169.1,439z M-169.1,433.9
					c-0.6,0-1.3,0.3-1.9,0.6c-0.3,0.3-0.6,1-0.6,1.6c0,0.6,0.3,1.3,0.6,1.6c0.3,0.3,1,0.6,1.9,0.6c0.6,0,1,0,1.6-0.3v-1.6h-1h1v1.6
					h-0.3c-0.3,0-1,0.3-1.3,0.3c-0.6,0-1.3-0.3-1.6-0.6c-0.3-0.3-0.6-1-0.6-1.6c0-0.6,0.3-1.3,0.6-1.6c0.6-0.6,1.9-1,3.2-0.3l0,0
					c-0.3,0-0.6-0.3-0.6-0.3C-168.5,433.9-168.8,433.9-169.1,433.9z"/>
			</g>
		</g>
	</g>
</g>
</svg>
