<?xml version="1.0" encoding="utf-8"?>
<!-- Generator: Adobe Illustrator 19.1.0, SVG Export Plug-In . SVG Version: 6.00 Build 0)  -->
<svg version="1.1" id="Layer_1" xmlns="http://www.w3.org/2000/svg" xmlns:xlink="http://www.w3.org/1999/xlink" x="0px" y="0px"
	 viewBox="0 0 320.5 45.4" style="enable-background:new 0 0 320.5 45.4;" xml:space="preserve">
<style type="text/css">
	.st0{fill:#333333;}
	.st1{fill:#EB2424;}
	.st2{fill:#8D1A1C;}
	.st3{fill:#BB2226;}
	.st4{fill:#610C0D;}
</style>
<g>
	<path class="st0" d="M67.8,23.2V45h-4.3V14.9h5.9l4.9,18v-18h4.2V45h-4.9L67.8,23.2z"/>
	<path class="st0" d="M87.3,27.6h6.5v4.3h-6.5v8.8h8.2V45H82.5V14.9h12.9v4.3h-8.2V27.6z"/>
	<path class="st0" d="M109.4,29l-1.7,16h-6.5l-3.4-30.1h4.6l2.5,23.7l2.3-23.7h4.6l2.4,23.9l2.5-23.9h4.1L117.4,45h-6.3L109.4,29z"
		/>
	<path class="st0" d="M144.6,33.8v4c0,4.8-2.4,7.6-7.1,7.6s-7.1-2.8-7.1-7.6V22.1c0-4.8,2.4-7.6,7.1-7.6s7.1,2.8,7.1,7.6v2.9h-4.5
		v-3.2c0-2.1-0.9-3-2.5-3c-1.5,0-2.5,0.8-2.5,3v16.3c0,2.2,0.9,2.9,2.5,2.9c1.5,0,2.5-0.8,2.5-2.9v-4.3H144.6z"/>
	<path class="st0" d="M163.4,45h-4.8l-0.8-5.5H152l-0.8,5.5h-4.3l4.8-30.1h6.9L163.4,45z M152.6,35.5h4.6l-2.3-15.2L152.6,35.5z"/>
	<path class="st0" d="M172.5,14.6c4.6,0,7,2.8,7,7.6v0.9H175v-1.2c0-2.1-0.9-3-2.4-3s-2.4,0.8-2.4,3c0,6.2,9.2,7.4,9.2,16
		c0,4.8-2.4,7.6-7.1,7.6c-4.6,0-7.1-2.8-7.1-7.6v-1.8h4.5v2.2c0,2.2,0.9,2.9,2.5,2.9c1.5,0,2.5-0.8,2.5-2.9c0-6.2-9.2-7.4-9.2-16
		C165.5,17.3,167.9,14.6,172.5,14.6z"/>
	<path class="st0" d="M181.4,14.9H196v4.3h-4.9V45h-4.7V19.2h-4.9V14.9z"/>
	<path class="st0" d="M198.6,14.9h4.7v25.8h7.8V45h-12.5V14.9z"/>
	<path class="st0" d="M218.5,27.6h6.5v4.3h-6.5v8.8h8.2V45h-12.9V14.9h12.9v4.3h-8.2V27.6z"/>
	<path class="st0" d="M237.4,14.9h4.7v25.8h7.8V45h-12.5V14.9z"/>
	<path class="st0" d="M252.5,14.9h4.7V45h-4.7V14.9z"/>
	<path class="st0" d="M268.4,39.5l3.6-24.6h4.3L271.7,45h-7.1L260,14.9h4.8L268.4,39.5z"/>
	<path class="st0" d="M279.1,14.9h4.7V45h-4.7V14.9z"/>
	<path class="st0" d="M292,23.2V45h-4.3V14.9h5.9l4.9,18v-18h4.2V45h-4.9L292,23.2z"/>
	<path class="st0" d="M313.8,28.3h6.6v9.5c0,4.8-2.4,7.6-7.1,7.6c-4.6,0-7.1-2.8-7.1-7.6V22.1c0-4.8,2.4-7.6,7.1-7.6
		c4.6,0,7.1,2.8,7.1,7.6v2.9H316v-3.2c0-2.1-0.9-3-2.5-3s-2.5,0.8-2.5,3v16.3c0,2.2,0.9,2.9,2.5,2.9s2.5-0.8,2.5-2.9v-5.5h-2.2V28.3
		z"/>
</g>
<g>
	<polygon class="st1" points="25.7,0 20.3,3.1 20.3,10.2 16.2,12.3 16.2,5.5 10.2,9 10.2,15.6 9.9,15.8 9.9,15.8 5.7,17.9 5.7,11.8 
		0,14.9 0,45 25.7,45 	"/>
	<polygon class="st2" points="20.3,10.3 16.2,5.5 16.2,12.3 	"/>
	<polygon class="st2" points="10.1,15.8 10.1,15.8 5.7,11.8 5.7,17.9 	"/>
	<polygon class="st2" points="51.5,45 51.5,14.9 46.1,11.8 46.1,17.9 41.9,15.8 41.9,15.8 41.6,15.6 41.6,9 35.3,5.5 35.3,12.3 
		31.2,10.2 31.2,3.2 25.7,0 25.7,45 	"/>
	<polygon class="st1" points="31.2,10.3 35.3,12.3 35.3,5.5 	"/>
	<polygon class="st1" points="46.1,17.9 46.1,11.8 41.7,15.8 41.7,15.8 	"/>
	<polygon class="st3" points="25.7,33 18.8,35 18.8,45 25.7,45 	"/>
	<polygon class="st4" points="25.7,33 32.7,35 32.7,45 25.7,45 	"/>
	<polygon class="st2" points="25.7,13.7 0,25.9 0,24.4 25.7,12 	"/>
	<polygon class="st1" points="25.7,13.7 51.5,25.9 51.5,24.4 25.7,12 	"/>
</g>
</svg>
